# xmcd
#
# Track frame offsets:
#	150
#	59640
#	64185
#	75600
#	108140
#	126700
#	130652
#	136637
#	175812
#	249315
#
# Disc length: 4013 seconds
#
# Revision: 0
# Processed by: cddbd v1.5.2PL0 Copyright (c) Steve Scherf et al.
# Submitted via: dBpowerAMP V4.0
#
DISCID=870fab0a
DTITLE=Eugene Chadbourne - Worms with Strings
DYEAR=1900
DGENRE=Jazz+Funk
TTITLE0=Dragonfly/Trichinela Spiralis/Prelude to Wild Mountain Thyme/Los Gaviotis/Viva La West Side
TTITLE1=Loa Loa
TTITLE2=Strongyloides Stercoralis
TTITLE3=Wucheria Bancrofti/Post Power Mower Grasshopper
TTITLE4=Song for my Ant Lion
TTITLE5=Ancyclostoma Brazilense
TTITLE6=Necatur Americanus/Ancyclostoma Diodinae
TTITLE7=The Waterstriders
TTITLE8=Encroachment
TTITLE9=Prelude to Gromphado/Gromphado
EXTD=
EXTT0=
EXTT1=
EXTT2=
EXTT3=
EXTT4=
EXTT5=
EXTT6=
EXTT7=
EXTT8=
EXTT9=
PLAYORDER=
